<?xml version="1.0" standalone="no"?>
<!DOCTYPE svg PUBLIC "-//W3C//DTD SVG 20010904//EN"
 "http://www.w3.org/TR/2001/REC-SVG-20010904/DTD/svg10.dtd">
<svg version="1.0" xmlns="http://www.w3.org/2000/svg"
 width="516.000000pt" height="550.000000pt" viewBox="0 0 516.000000 550.000000"
 preserveAspectRatio="xMidYMid meet">

<g transform="translate(0.000000,550.000000) scale(0.100000,-0.100000)"
fill="#000000" stroke="none">
<path d="M932 5345 c-128 -73 -401 -379 -697 -780 l-104 -141 6 -2143 6 -2143
43 6 c135 18 610 201 1052 405 l153 71 832 -20 c458 -11 1055 -24 1327 -30
272 -6 532 -13 577 -16 l83 -6 27 -41 c47 -69 80 -82 208 -81 93 0 122 5 190
28 185 64 310 157 360 267 77 172 -5 414 -226 666 -58 66 -57 57 -19 228 28
130 25 308 -8 398 -47 130 -120 205 -187 193 -108 -21 -257 -303 -375 -715
-53 -184 -238 -278 -563 -288 -141 -5 -160 -4 -177 12 -31 28 -24 72 28 170
l47 90 120 62 120 61 -42 17 c-61 25 -71 56 -38 127 51 111 53 319 6 608 -10
63 -16 122 -13 130 3 8 37 51 75 95 237 274 390 617 443 991 28 197 18 559
-17 652 -49 130 -549 18 -1213 -272 -87 -38 -135 -54 -150 -50 -11 4 -58 42
-103 85 -175 167 -399 279 -651 325 -52 9 -152 16 -249 17 -130 2 -165 5 -177
17 -7 8 -23 60 -35 115 -64 295 -210 568 -404 752 -61 58 -144 122 -203 156
-5 3 -29 -5 -52 -18z m263 -1490 c185 -49 335 -211 392 -425 26 -96 23 -299
-6 -405 -73 -273 -268 -491 -500 -559 -80 -23 -216 -21 -294 5 -328 109 -475
543 -317 932 42 102 87 173 163 254 165 174 371 247 562 198z m1627 -594 c229
-89 371 -346 355 -641 -29 -528 -513 -900 -901 -692 -84 45 -178 147 -224 243
-52 109 -72 202 -72 336 0 136 25 247 85 369 95 195 235 326 419 390 62 21 84
24 176 21 78 -3 120 -9 162 -26z m-1346 -1038 c95 -32 174 -99 174 -148 0 -56
-105 -98 -188 -76 -103 28 -187 166 -135 223 21 23 82 24 149 1z"/>
<path d="M1154 3351 c-129 -79 -242 -403 -193 -552 37 -109 130 -106 219 6
125 158 174 474 83 545 -32 25 -69 26 -109 1z"/>
<path d="M2355 2952 c-112 -69 -206 -278 -208 -462 0 -122 44 -187 118 -172
74 14 180 169 221 322 23 88 24 225 1 267 -33 62 -79 77 -132 45z"/>
</g>
</svg>
